<svg id="SvgjsSvg1000" xmlns="http://www.w3.org/2000/svg" version="1.1" xmlns:xlink="http://www.w3.org/1999/xlink" xmlns:svgjs="http://svgjs.com/svgjs" width="153" height="136" viewBox="0 0 153 136"><title>Group 2</title><desc>Created with Avocode.</desc><defs id="SvgjsDefs1001"></defs><path id="SvgjsPath1007" d="M387.7 214.34C387.7 220.53 382.53 225.71 376.34 225.71C370.15999999999997 225.71 364.97999999999996 220.53 364.97999999999996 214.34C364.97999999999996 208.16 370.15999999999997 202.98000000000002 376.34 202.98000000000002C382.53 202.98000000000002 387.7 208.16000000000003 387.7 214.34000000000003ZM320.51 273.39C319.08 270.75 319.76 267.90999999999997 320.45 266.15999999999997C331.46999999999997 264.66999999999996 340.37 259.71 346.95 254.57999999999996L346.95 265.85999999999996C336.45 269.79999999999995 324.5 273.38999999999993 320.53999999999996 273.38999999999993ZM420.94 271.18C415.56 269.63 410.26 267.82 405.02 265.86L405.02 254.58C411.59999999999997 259.71000000000004 420.5 264.67 431.51 266.16C432.19394 267.87961 432.84924 270.63023000000004 431.54515 273.20864C431.83903 272.66172 432.64259 271.19664 431.45 273.39C427.94 273.39 424.27 272.14 420.94 271.18ZM405.35 275.24C412.64000000000004 277.91 420.20000000000005 280.61 427.94 281.67C430.54 282.03000000000003 433.87 282.43 436.25 280.98C439.92 278.76 441.16 272.96000000000004 440.95 269.06C440.78 265.83 439.76 261.88 437.63 259.34C436.23 257.65999999999997 434.11 257.79999999999995 432.13 257.5C430.02 257.18 427.93 256.69 425.89 256.05C417.47999999999996 253.41000000000003 410 248.23000000000002 403.91999999999996 241.91000000000003C402.35999999999996 240.28000000000003 400.85999999999996 238.57000000000002 399.50999999999993 236.75000000000003C397.0399999999999 233.41000000000003 393.62999999999994 230.81000000000003 389.85999999999996 229.08000000000004C396.15 223.30000000000004 398.11999999999995 213.93000000000004 394.59999999999997 206.14000000000004C391.46999999999997 199.18000000000004 384.45 198.21000000000004 376.83 198.03000000000003C369.18 197.84000000000003 361.94 198.49000000000004 358.47999999999996 205.31000000000003C354.50999999999993 213.12000000000003 356.23999999999995 222.84000000000003 362.59 228.86000000000004C359.01 230.43000000000004 355.10999999999996 232.94000000000005 352.84999999999997 236.20000000000005C352.21999999999997 237.11000000000004 351.53 237.97000000000006 350.83 238.82000000000005C347.31 243.06000000000006 343.19 246.83000000000004 338.62 249.92000000000004C335.55 252.00000000000006 332.27 253.77000000000004 328.81 255.11000000000004C327.01 255.80000000000004 325.17 256.38000000000005 323.29 256.83000000000004C321.14000000000004 257.34000000000003 318.95000000000005 257.43000000000006 316.79 257.87000000000006C313.42 258.55000000000007 311.99 263.37000000000006 311.38 266.2800000000001C310.5 270.5000000000001 311.14 274.9200000000001 313.51 278.55000000000007C315.15999999999997 281.07000000000005 317.17 281.94000000000005 320.2 281.9600000000001C323.4 281.9800000000001 326.59999999999997 281.3100000000001 329.7 280.5700000000001C335.44 279.1800000000001 341.07 277.2700000000001 346.62 275.2400000000001L346.62 289.0700000000001L355.61 289.0700000000001L355.61 253.2700000000001C355.61 243.3500000000001 363.67 235.2800000000001 373.59000000000003 235.2800000000001L378.37 235.2800000000001C388.29 235.2800000000001 396.36 243.35000000000008 396.36 253.2700000000001L396.36 289.0700000000001L405.35 289.0700000000001Z " fill="#f5ad4d" fill-opacity="1" transform="matrix(1,0,0,1,-311,-154)"></path><path id="SvgjsPath1008" d="M425.17 205.6L418.14000000000004 211.63L420.72 204.32999999999998C421.54 202.04 420.28000000000003 200.45 418.77000000000004 198.92C417.13000000000005 197.26999999999998 415.76000000000005 195.35999999999999 414.73 193.26999999999998C412.83000000000004 189.36999999999998 412.19 184.89 412.87 180.60999999999999C414.09000000000003 172.95 419.59000000000003 166.39 426.91 163.83999999999997C434.39000000000004 161.23999999999998 442.91 163.10999999999999 448.62 168.58999999999997C454.33 174.06999999999996 456.57 182.47999999999996 454.3 190.06999999999996C451.63 198.97999999999996 443.19 205.26999999999995 433.90000000000003 205.26999999999995C431.1 205.26999999999995 427.57000000000005 203.53999999999996 425.17 205.59999999999997ZM407.44 169.92C401.59 180.91 403.33 194.73999999999998 411.65 203.98999999999998L404.54999999999995 224.04C403.10999999999996 228.10999999999999 408.15999999999997 231.6 411.44999999999993 228.76999999999998L429.2099999999999 213.54999999999998C445.61999999999995 216.2 461.4699999999999 204.29999999999998 463.5999999999999 187.82999999999998C465.6699999999999 171.83999999999997 454.1899999999999 156.64 438.2299999999999 154.30999999999997C436.7999999999999 154.09999999999997 435.3499999999999 153.99999999999997 433.8999999999999 153.99999999999997C422.9199999999999 153.99999999999997 412.5999999999999 160.22999999999996 407.43999999999994 169.91999999999996Z " fill="#eb4d5c" fill-opacity="1" transform="matrix(1,0,0,1,-311,-154)"></path><path id="SvgjsPath1009" d="M380.83 183.22C381.08 183.3 381.32 183.39 381.56 183.48C381.68 183.51999999999998 381.8 183.57 381.92 183.60999999999999C381.98 183.64 382.04 183.66 382.1 183.69C382.29 183.76 381.84000000000003 183.57 382.13 183.7C382.62 183.91 383.09 184.14999999999998 383.56 184.41C384.02 184.66 384.47 184.95 384.91 185.25C385.11 185.39 385.32000000000005 185.54 385.52000000000004 185.69C385.22 185.46 385.57000000000005 185.74 385.64000000000004 185.79C385.76000000000005 185.88 385.87000000000006 185.98 385.98 186.07999999999998C386.78000000000003 186.76 387.51 187.51999999999998 388.17 188.35C388.22 188.41 388.36 188.59 388.15000000000003 188.32C388.19000000000005 188.37 388.23 188.42 388.26000000000005 188.47C388.34000000000003 188.57 388.41 188.68 388.49000000000007 188.78C388.6500000000001 189 388.80000000000007 189.23 388.95000000000005 189.46C389.24000000000007 189.91 389.50000000000006 190.37 389.74000000000007 190.85C389.87000000000006 191.10999999999999 390.00000000000006 191.38 390.12000000000006 191.66C390.15000000000003 191.72 390.1700000000001 191.77 390.20000000000005 191.82999999999998C390.05000000000007 191.49999999999997 390.18000000000006 191.79 390.21000000000004 191.85999999999999C390.26000000000005 191.99999999999997 390.32000000000005 192.14 390.37000000000006 192.27999999999997C390.5900000000001 192.86999999999998 390.77000000000004 195.93999999999997 390.9200000000001 196.54999999999998C390.99000000000007 196.85 391.05000000000007 197.14999999999998 391.11000000000007 197.45C391.13000000000005 197.6 391.1600000000001 197.75 391.18000000000006 197.89999999999998C391.19000000000005 197.96999999999997 391.20000000000005 198.02999999999997 391.21000000000004 198.09999999999997C391.16 197.71999999999997 391.20000000000005 198.04999999999995 391.22 198.12999999999997C391.29 198.77999999999997 391.33000000000004 199.42999999999998 391.33000000000004 200.07999999999996C391.33000000000004 200.68999999999997 391.84000000000003 201.20999999999995 392.46000000000004 201.20999999999995C393.07000000000005 201.20999999999995 393.59000000000003 200.68999999999994 393.59000000000003 200.07999999999996C393.58000000000004 195.49999999999994 391.74 188.57999999999996 388.51000000000005 185.33999999999995C386.54 183.35999999999996 384.08000000000004 181.88999999999996 381.43000000000006 181.04999999999995C380.8400000000001 180.85999999999996 380.20000000000005 181.25999999999996 380.0400000000001 181.83999999999995C379.87000000000006 182.44999999999996 380.24000000000007 183.03999999999994 380.8300000000001 183.21999999999994 " fill="#f5ad4d" fill-opacity="1" transform="matrix(1,0,0,1,-311,-154)"></path><path id="SvgjsPath1010" d="M392.08 204.46C393.08 204.46 394.03 204.06 394.74 203.35C395.45 202.64 395.84000000000003 201.69 395.84000000000003 200.7C395.82000000000005 195.44 393.69000000000005 187.82999999999998 389.99 184.10999999999999C387.75 181.85999999999999 384.93 180.14999999999998 381.85 179.17C381.49 179.05999999999997 381.12 179 380.75 179C379.07 179 377.58 180.14 377.13 181.76C376.6 183.72 377.71 185.73 379.65999999999997 186.35C379.86999999999995 186.42 380.08 186.48999999999998 380.28 186.56C380.38 186.6 380.47999999999996 186.64000000000001 380.59 186.68L380.71 186.73000000000002C381.09999999999997 186.9 381.5 187.10000000000002 381.90999999999997 187.32000000000002C382.28 187.53000000000003 382.65999999999997 187.76000000000002 383.03999999999996 188.03000000000003C383.17999999999995 188.12000000000003 383.30999999999995 188.22000000000003 383.45 188.33000000000004C383.46999999999997 188.34000000000003 383.49 188.36000000000004 383.51 188.38000000000005L383.62 188.46000000000006C383.71 188.54000000000008 383.81 188.62000000000006 383.9 188.70000000000007C384.56 189.25000000000009 385.16999999999996 189.89000000000007 385.76 190.63000000000008L385.78999999999996 190.67000000000007C385.84999999999997 190.75000000000009 385.90999999999997 190.84000000000006 385.97999999999996 190.93000000000006C386.10999999999996 191.12000000000006 386.23999999999995 191.31000000000006 386.35999999999996 191.50000000000006C386.59 191.86000000000007 386.80999999999995 192.25000000000006 387.03 192.67000000000004C387.14 192.88000000000005 387.23999999999995 193.10000000000005 387.34999999999997 193.34000000000003L387.4 193.47000000000003C387.44 193.58000000000004 387.48999999999995 193.70000000000002 387.53 193.82000000000002C387.71 194.29000000000002 387.85999999999996 197.27 387.98999999999995 197.79000000000002C388.04999999999995 198.04000000000002 388.09999999999997 198.3 388.15 198.54000000000002C388.16999999999996 198.67000000000002 388.19 198.8 388.21999999999997 198.96L388.23999999999995 199.07000000000002C388.29999999999995 199.59000000000003 388.3299999999999 200.14000000000001 388.3299999999999 200.71C388.3399999999999 202.78 390.0199999999999 204.46 392.0799999999999 204.46Z " fill="#f5ad4d" fill-opacity="1" transform="matrix(1,0,0,1,-311,-154)"></path><path id="SvgjsPath1011" d="M361.26 200.08C361.26 199.52 361.28999999999996 198.96 361.34 198.4C361.35999999999996 198.26000000000002 361.36999999999995 198.13 361.39 198C361.41999999999996 197.75 361.34999999999997 198.28 361.39 198.04C361.39 197.97 361.4 197.9 361.41999999999996 197.84C361.46 197.56 361.50999999999993 197.28 361.56999999999994 197C361.67999999999995 196.46 361.81999999999994 193.47 361.98999999999995 192.95C362.06999999999994 192.70999999999998 362.15 192.45999999999998 362.23999999999995 192.22C362.28999999999996 192.1 362.34 191.98 362.37999999999994 191.85999999999999C362.4099999999999 191.79999999999998 362.42999999999995 191.73999999999998 362.4599999999999 191.67999999999998C362.31999999999994 192.01999999999998 362.43999999999994 191.73 362.4699999999999 191.65999999999997C362.88999999999993 190.67999999999998 363.4199999999999 189.74999999999997 364.0299999999999 188.87999999999997C364.0999999999999 188.77999999999997 364.1799999999999 188.67999999999998 364.24999999999994 188.56999999999996C364.29999999999995 188.49999999999997 364.56999999999994 188.14999999999998 364.3399999999999 188.44999999999996C364.50999999999993 188.22999999999996 364.68999999999994 188.01999999999995 364.8599999999999 187.80999999999997C365.2099999999999 187.40999999999997 365.5699999999999 187.02999999999997 365.9499999999999 186.67C366.1699999999999 186.45999999999998 366.3899999999999 186.26999999999998 366.6099999999999 186.07C366.7199999999999 185.98 366.8399999999999 185.88 366.9499999999999 185.79C366.9999999999999 185.75 367.0499999999999 185.70999999999998 367.09999999999985 185.67C367.33999999999986 185.48 366.95999999999987 185.76999999999998 367.11999999999983 185.64999999999998C367.60999999999984 185.27999999999997 368.11999999999983 184.93999999999997 368.6499999999998 184.62999999999997C369.1599999999998 184.31999999999996 369.6899999999998 184.04999999999995 370.2299999999998 183.79999999999995C370.2899999999998 183.76999999999995 370.3499999999998 183.74999999999994 370.4099999999998 183.71999999999994C370.4799999999998 183.68999999999994 370.7699999999998 183.56999999999994 370.4299999999998 183.70999999999995C370.56999999999977 183.64999999999995 370.70999999999975 183.59999999999994 370.8499999999998 183.53999999999996C371.1499999999998 183.42999999999995 371.4599999999998 183.31999999999996 371.7699999999998 183.21999999999997C372.3499999999998 183.03999999999996 372.7199999999998 182.44999999999996 372.5499999999998 181.83999999999997C372.3999999999998 181.25999999999996 371.7499999999998 180.85999999999999 371.1699999999998 181.04999999999998C366.87999999999977 182.41 363.2199999999998 185.41 361.0799999999998 189.36999999999998C359.7199999999998 191.89 359.0099999999998 197.20999999999998 358.99999999999983 200.07999999999998C358.99999999999983 200.7 359.5099999999998 201.20999999999998 360.1299999999998 201.20999999999998C360.73999999999984 201.20999999999998 361.2599999999998 200.7 361.2599999999998 200.07999999999998 " fill="#f5ad4d" fill-opacity="1" transform="matrix(1,0,0,1,-311,-154)"></path><path id="SvgjsPath1012" d="M359.75 204.46C361.82 204.46 363.5 202.78 363.5 200.71C363.5 200.23000000000002 363.53 199.75 363.58 199.29000000000002C363.59 199.20000000000002 363.59999999999997 199.11 363.60999999999996 199.02L363.62999999999994 198.86C363.66999999999996 198.63000000000002 363.7099999999999 198.39000000000001 363.75999999999993 198.16000000000003C363.8499999999999 197.74000000000004 363.9699999999999 194.83 364.10999999999996 194.37000000000003C364.17999999999995 194.17000000000004 364.24999999999994 193.96000000000004 364.31999999999994 193.76000000000002C364.35999999999996 193.66000000000003 364.3999999999999 193.57000000000002 364.44999999999993 193.45000000000002L364.48999999999995 193.33C364.84 192.54000000000002 365.28 191.76000000000002 365.80999999999995 191.01000000000002C365.86999999999995 190.92000000000002 365.92999999999995 190.83 365.98999999999995 190.75000000000003L366.12999999999994 190.57000000000002C366.23999999999995 190.43000000000004 366.35999999999996 190.29000000000002 366.47999999999996 190.15000000000003C366.74999999999994 189.83000000000004 367.05999999999995 189.51000000000005 367.39 189.19000000000003C367.57 189.02000000000004 367.75 188.85000000000002 367.95 188.69000000000003C368.03999999999996 188.61 368.13 188.53000000000003 368.21999999999997 188.46000000000004L368.35999999999996 188.35000000000002C368.73999999999995 188.06000000000003 369.15999999999997 187.77 369.61999999999995 187.50000000000003C370.0199999999999 187.26000000000002 370.46999999999997 187.03000000000003 370.93999999999994 186.81000000000003L371.1499999999999 186.72000000000003C371.2399999999999 186.69000000000003 371.3299999999999 186.65000000000003 371.4199999999999 186.62000000000003C371.6699999999999 186.52000000000004 371.9299999999999 186.43000000000004 372.1799999999999 186.35000000000002C374.1399999999999 185.73000000000002 375.2399999999999 183.71000000000004 374.70999999999987 181.76000000000002C374.2599999999999 180.14000000000001 372.76999999999987 179.00000000000003 371.08999999999986 179.00000000000003C370.71999999999986 179.00000000000003 370.34999999999985 179.06000000000003 369.9999999999999 179.17000000000002C365.0699999999999 180.73000000000002 360.83999999999986 184.22000000000003 358.3899999999999 188.74C356.83999999999986 191.63 356.0099999999999 197.38 355.9999999999999 200.70000000000002C355.9999999999999 201.70000000000002 356.3899999999999 202.64000000000001 357.0999999999999 203.35000000000002C357.8099999999999 204.07000000000002 358.7499999999999 204.46000000000004 359.7499999999999 204.46000000000004Z " fill="#f5ad4d" fill-opacity="1" transform="matrix(1,0,0,1,-311,-154)"></path><path id="SvgjsPath1013" d="M372.28 188.46L372.28 181.78L372.28 181.53C372.28 181.43 372.32 181.05 372.27 181.44C372.28999999999996 181.32 372.32 181.2 372.34999999999997 181.07999999999998C372.37999999999994 181.01 372.46999999999997 180.79999999999998 372.33 181.11999999999998C372.34999999999997 181.05999999999997 372.38 181.00999999999996 372.40999999999997 180.95999999999998C372.43999999999994 180.89999999999998 372.46999999999997 180.84999999999997 372.49999999999994 180.79999999999998C372.65999999999997 180.54999999999998 372.37999999999994 180.92999999999998 372.50999999999993 180.79C372.5799999999999 180.69 372.66999999999996 180.60999999999999 372.75999999999993 180.53C372.81999999999994 180.47 372.99999999999994 180.35 372.7199999999999 180.55C372.7699999999999 180.52 372.81999999999994 180.48000000000002 372.8699999999999 180.45000000000002C372.9499999999999 180.4 373.3399999999999 180.23000000000002 372.9799999999999 180.38000000000002C373.1199999999999 180.32000000000002 373.2599999999999 180.29000000000002 373.3999999999999 180.26000000000002C373.62999999999994 180.21 373.1099999999999 180.29000000000002 373.3499999999999 180.27C373.4199999999999 180.26000000000002 373.4799999999999 180.26000000000002 373.5399999999999 180.26000000000002L373.5599999999999 180.26000000000002L373.7299999999999 180.26000000000002L377.6499999999999 180.26000000000002L378.3499999999999 180.26000000000002L378.4999999999999 180.26000000000002L378.51999999999987 180.26000000000002C378.57999999999987 180.26000000000002 378.64999999999986 180.26000000000002 378.70999999999987 180.27C378.91999999999985 180.28 378.41999999999985 180.21 378.72999999999985 180.27C378.84999999999985 180.3 378.96999999999986 180.33 379.07999999999987 180.38000000000002C378.72999999999985 180.25000000000003 379.10999999999984 180.40000000000003 379.1899999999999 180.45000000000002C379.2499999999999 180.48000000000002 379.2999999999999 180.52 379.3499999999999 180.55C379.06999999999994 180.36 379.2399999999999 180.47 379.3099999999999 180.53C379.4099999999999 180.62 379.5099999999999 180.72 379.5999999999999 180.83C379.3599999999999 180.54000000000002 379.6099999999999 180.87 379.6499999999999 180.96C379.6799999999999 181.01000000000002 379.7099999999999 181.07000000000002 379.7399999999999 181.12C379.5899999999999 180.81 379.6799999999999 181 379.7099999999999 181.08C379.74999999999994 181.20000000000002 379.7799999999999 181.32000000000002 379.7999999999999 181.44000000000003C379.7299999999999 181.06000000000003 379.7899999999999 181.43000000000004 379.7899999999999 181.53000000000003L379.7899999999999 184.49000000000004L379.7899999999999 188.46000000000004C379.7899999999999 189.08000000000004 380.2999999999999 189.59000000000003 380.9199999999999 189.59000000000003C381.5299999999999 189.59000000000003 382.0499999999999 189.08000000000004 382.0499999999999 188.46000000000004L382.0499999999999 181.78000000000003C382.0499999999999 181.03000000000003 381.9199999999999 180.31000000000003 381.5099999999999 179.66000000000003C380.8599999999999 178.63000000000002 379.70999999999987 178.00000000000003 378.4899999999999 178.00000000000003L374.8799999999999 178.00000000000003L373.5599999999999 178.00000000000003C372.2999999999999 178.00000000000003 371.1299999999999 178.68000000000004 370.4899999999999 179.76000000000002C369.8499999999999 180.84000000000003 370.01999999999987 182.23000000000002 370.01999999999987 183.43L370.01999999999987 188.46C370.01999999999987 189.08 370.52999999999986 189.59 371.14999999999986 189.59C371.7599999999999 189.59 372.27999999999986 189.08 372.27999999999986 188.46 " fill="#f5ad4d" fill-opacity="1" transform="matrix(1,0,0,1,-311,-154)"></path><path id="SvgjsPath1014" d="M373.11 182.41L373.19 183.49C373.3 183.48000000000002 373.41 183.47 373.52 183.44ZM377.85 183.51C378.1 183.60999999999999 378.43 183.69 378.82000000000005 183.69L378.82000000000005 183.52L378.56000000000006 183.52L378.56000000000006 183.57000000000002L378.1600000000001 183.57000000000002ZM372.49 183.52L372.49 183.69C372.87 183.69 373.2 183.60999999999999 373.45 183.51L373.19 183.51C373.05 183.51999999999998 372.96 183.51999999999998 372.92 183.51999999999998ZM373.08 182.75L373.08 183.49C373.12 183.49 373.15 183.49 373.18 183.49ZM376.79 189.09L376.79 183.51L374.52000000000004 183.51L374.52000000000004 189.09C374.52000000000004 191.16 372.84000000000003 192.84 370.77000000000004 192.84C368.70000000000005 192.84 367.02000000000004 191.16 367.02000000000004 189.09L367.02000000000004 184.06C367.02000000000004 183.87 367.02000000000004 183.69 367.01000000000005 183.49C366.9800000000001 182.27 366.94000000000005 180.59 367.86000000000007 179.05C368.9700000000001 177.17000000000002 371.01000000000005 176 373.18000000000006 176L378.12000000000006 176C380.2300000000001 176 382.24000000000007 177.11 383.36000000000007 178.89C383.99000000000007 179.89999999999998 384.2900000000001 181.04 384.2900000000001 182.39999999999998L384.2900000000001 189.08999999999997C384.2900000000001 191.15999999999997 382.61000000000007 192.83999999999997 380.5400000000001 192.83999999999997C378.4700000000001 192.83999999999997 376.7900000000001 191.15999999999997 376.7900000000001 189.08999999999997Z " fill="#f5ad4d" fill-opacity="1" transform="matrix(1,0,0,1,-311,-154)"></path><path id="SvgjsPath1015" d="M356.13 201.26L358.67 201.26L365.13 201.26L373.78 201.26L382.86999999999995 201.26L390.66999999999996 201.26L395.41999999999996 201.26L396.11999999999995 201.26C396.73999999999995 201.26 397.24999999999994 200.73999999999998 397.24999999999994 200.13C397.24999999999994 199.51 396.73999999999995 199 396.11999999999995 199L393.5799999999999 199L387.11999999999995 199L378.46999999999997 199L369.38 199L361.59 199L356.83 199L356.13 199C355.51 199 355 199.51 355 200.13C355 200.74 355.51 201.26 356.13 201.26 " fill="#f5ad4d" fill-opacity="1" transform="matrix(1,0,0,1,-311,-154)"></path><path id="SvgjsPath1016" d="M395.74 204.51L355.75 204.51C353.68 204.51 352 202.82 352 200.75C352 198.68 353.68 197 355.75 197L395.74 197C397.81 197 399.5 198.68 399.5 200.75C399.5 202.82 397.81 204.51 395.74 204.51 " fill="#f5ad4d" fill-opacity="1" transform="matrix(1,0,0,1,-311,-154)"></path><path id="SvgjsPath1017" d="M426.42893 175.72183L441.98528 191.27818000000002 " fill-opacity="0" fill="#ffffff" stroke-dasharray="0" stroke-linejoin="miter" stroke-linecap="round" stroke-opacity="1" stroke="#eb4d5c" stroke-miterlimit="50" stroke-width="8" transform="matrix(1,0,0,1,-311,-154)"></path><path id="SvgjsPath1018" d="M441.27817 176.42893L425.72182 191.98528000000002 " fill-opacity="0" fill="#ffffff" stroke-dasharray="0" stroke-linejoin="miter" stroke-linecap="round" stroke-opacity="1" stroke="#eb4d5c" stroke-miterlimit="50" stroke-width="8" transform="matrix(1,0,0,1,-311,-154)"></path></svg>