<?xml version="1.0" encoding="utf-8"?>
<!-- Generator: Adobe Illustrator 16.0.0, SVG Export Plug-In . SVG Version: 6.00 Build 0)  -->
<!DOCTYPE svg PUBLIC "-//W3C//DTD SVG 1.1//EN" "http://www.w3.org/Graphics/SVG/1.1/DTD/svg11.dtd">
<svg version="1.1" xmlns="http://www.w3.org/2000/svg" xmlns:xlink="http://www.w3.org/1999/xlink" x="0px" y="0px"
	 width="193.091px" height="63.636px" viewBox="0 0 193.091 63.636" enable-background="new 0 0 193.091 63.636"
	 xml:space="preserve">
<g id="Calque_2">
</g>
<g id="Calque_1">
	<g>
		<g>
			<path fill="#FFFFFF" stroke="#FFFFFF" stroke-width="0.8504" stroke-miterlimit="10" d="M39.585,11.823
				c2.26,1.134,4.325,2.612,6.157,4.411c2.28,2.237,4.074,4.843,5.333,7.746c1.057,2.431,1.703,4.987,1.93,7.62
				c-0.259-0.114-0.538-0.171-0.817-0.171c-0.333,0-0.667,0.082-0.971,0.247l-1.255,0.683c-0.234,0.127-0.44,0.299-0.609,0.506
				l-0.421,0.521c-0.43-0.943-1.239-1.648-1.856-2.185c-0.141-0.123-0.332-0.289-0.393-0.354c-0.002-0.003-0.005-0.007-0.008-0.01
				c-0.835-0.947-2.095-1.057-2.97-1.057c-0.157,0-0.306,0.004-0.441,0.009c-0.008-0.007-0.016-0.015-0.024-0.023
				c0.6-0.363,1.142-0.943,1.215-1.828l0,0c0.036-0.425-0.04-1.045-0.063-1.229c-0.035-0.265-0.077-0.488-0.126-0.682
				c-0.099-0.38-0.251-0.677-0.424-0.907c0.015-0.289,0.009-0.542,0-0.704c-0.021-0.454-0.073-1.514-0.987-2.139l0,0
				c-0.14-0.094-0.836-0.537-1.659-0.537c-0.782,0-1.476,0.389-1.863,1.03c-0.074,0.113-0.167,0.243-0.23,0.323
				c-0.053,0.042-0.103,0.084-0.15,0.13c-0.504-0.349-1.265-0.733-2.43-1.12c-0.295-0.099-0.579-0.121-0.932-0.121
				c-0.218,0-0.504,0.009-0.848,0.026c-0.012,0-0.024,0.001-0.036,0.002c-0.417,0.029-1.661,0.236-2.333,1.65
				c-0.135-0.116-0.261-0.214-0.366-0.294c-0.39-0.489-0.953-0.728-1.474-0.845l0.612-0.02c0.545-0.018,1.061-0.254,1.43-0.656
				c0.104-0.112,0.384-0.445,0.627-0.975c0.509-0.221,1.425-0.695,1.644-1.812c0.208-1.041-0.123-1.738-0.436-2.138
				c-0.332-0.427-0.732-0.653-1.096-0.774c-0.27-0.27-0.61-0.459-0.981-0.548c0.601-0.601,1.072-1.189,1.295-1.57
				c0.156-0.189,0.689-0.461,0.945-0.482c0.042,0.002,0.083,0.004,0.123,0.004c0.004,0,0.009,0,0.013,0h0.018
				c0.651,0,1.813,0.199,2.392,0.324c0.146,0.032,0.291,0.047,0.434,0.047c0.873,0,1.67-0.564,1.939-1.429
				C39.564,12.274,39.593,12.046,39.585,11.823 M11.758,15.884c0.069,0.265,0.193,0.52,0.374,0.749
				c0.285,0.359,0.634,0.633,1.03,0.812c0.027,0.11,0.045,0.235,0.044,0.328c-0.145,0.203-0.348,0.464-0.563,0.732
				c-0.158-0.234-0.367-0.438-0.619-0.593c-0.328-0.202-0.697-0.302-1.065-0.302c-0.42,0-0.839,0.13-1.194,0.387
				c0.41-0.489,0.84-0.964,1.291-1.424C11.287,16.337,11.52,16.108,11.758,15.884 M6.156,23.771
				c0.066,0.846,0.345,1.753,0.926,2.693c0.188,0.309,0.331,0.564,0.438,0.772c-0.913,0.49-2.133,1.225-3.081,2.08
				c0.305-1.673,0.787-3.31,1.44-4.898C5.969,24.2,6.061,23.985,6.156,23.771 M38.613,28.351c0.071,0.427,0.266,0.824,0.568,1.15
				c-0.092,0.137-0.169,0.287-0.227,0.445c-0.076,0.207-0.116,0.421-0.122,0.637c-0.033-0.045-0.065-0.087-0.094-0.125
				c-0.036-0.047-0.083-0.11-0.106-0.143c-0.02-0.031-0.039-0.061-0.057-0.089c0.119-0.298,0.168-0.627,0.133-0.964L38.613,28.351
				 M26.833,29.919c0.531,1.448,1.524,1.859,1.998,1.973c0.005,0.001,0.012,0.003,0.018,0.004c0.236,0.055,0.49,0.083,0.755,0.083
				c0.58,0,1.134-0.13,1.497-0.239c0.121-0.036,0.245-0.077,0.369-0.124c0.267,0.029,0.62,0.071,0.887,0.104
				c1.001,0.121,1.641,0.194,2.079,0.194c0.072,0,0.157-0.001,0.252-0.01c0.03,0.595,0.174,1.201,0.42,1.731
				c0.125,0.269,0.339,0.712,0.567,1.181c0.236,0.486,0.571,1.174,0.735,1.535c-0.01,0.215-0.058,0.589-0.116,0.875
				c-0.212,1.029,0.395,2.038,1.379,2.348c-0.185,0.238-0.556,0.504-0.781,0.664c-0.681,0.484-1.019,1.25-1.003,2.277
				c0.005,0.399,0.059,0.824,0.106,1.199c0.02,0.156,0.048,0.371,0.06,0.518c-0.087,0.112-0.247,0.285-0.372,0.42
				c-0.044,0.047-0.089,0.096-0.137,0.148c-0.212,0.23-0.627,0.6-0.996,0.924c-0.361,0.318-0.702,0.619-0.96,0.883
				c-0.478,0.486-0.814,1.088-1.059,1.529c-0.003,0.004-0.005,0.008-0.008,0.014c-0.086,0.027-0.18,0.057-0.275,0.083
				c-0.172-0.228-0.362-0.446-0.549-0.664c-0.079-0.091-0.191-0.22-0.253-0.296c-0.231-0.455-0.411-0.935-0.461-1.174
				c0.038-0.105,0.131-0.294,0.195-0.425c0.099-0.196,0.208-0.42,0.306-0.669c0.626-1.582-0.391-2.838-0.773-3.311
				c-0.007-0.008-0.015-0.018-0.022-0.026c-0.049-0.136-0.122-0.363-0.173-0.524c-0.113-0.351-0.228-0.712-0.365-1.043
				c-0.392-0.937-0.848-1.627-1.357-2.051c-0.593-0.498-1.453-0.721-2.785-0.721c-0.03,0-0.059,0-0.086,0
				c-0.625,0.006-1.347,0.234-1.89,0.482c-0.208-0.022-0.457-0.064-0.631-0.107c-0.536-0.525-1.097-1.04-1.661-1.419
				c-0.056-0.31-0.08-0.783-0.091-0.989c-0.004-0.084-0.008-0.162-0.013-0.234c-0.022-0.35,0.08-1.512,0.243-2.332
				c0.015-0.01,0.029-0.02,0.042-0.029c0.298-0.203,0.797-0.548,1.142-1.158c0.004-0.007,0.008-0.014,0.012-0.022
				c0.074-0.134,0.265-0.375,0.405-0.552c0.053-0.067,0.106-0.134,0.157-0.2c0.035-0.01,0.072-0.021,0.11-0.033
				c0.068,0.007,0.138,0.011,0.207,0.011c0.325,0,0.65-0.078,0.947-0.234c0.225-0.118,0.421-0.274,0.583-0.458
				C25.911,30.012,26.393,29.963,26.833,29.919 M5.191,41.186c0.167,0.107,0.351,0.199,0.555,0.274
				c0.476,0.175,1.263,0.688,1.852,1.121l1.295,3.026c0.232,0.543,0.688,0.958,1.25,1.137l1.961,0.627l0.476,0.307l-0.343,1.395
				l-0.891,1.3c-0.121,0.177-0.211,0.366-0.271,0.563c-2.127-2.169-3.812-4.664-5.01-7.424C5.733,42.749,5.441,41.972,5.191,41.186
				 M28.582,7.185c-0.091,0-0.181,0-0.272,0.001c-3.584,0.035-7.06,0.771-10.318,2.191c-3.149,1.364-5.971,3.307-8.387,5.771
				c-2.409,2.465-4.3,5.318-5.606,8.497c-1.352,3.287-2.023,6.775-1.99,10.354c0.036,3.586,0.774,7.06,2.19,10.322
				c1.368,3.15,3.316,5.971,5.771,8.387c2.464,2.408,5.322,4.299,8.498,5.604c3.204,1.322,6.603,1.994,10.093,1.994
				c0.088,0,0.176,0,0.265,0c3.583-0.035,7.057-0.774,10.322-2.195c3.149-1.367,5.969-3.311,8.382-5.768
				c2.417-2.465,4.303-5.321,5.611-8.496c1.353-3.291,2.024-6.779,1.988-10.364c-0.034-3.579-0.771-7.054-2.188-10.313
				c-1.368-3.151-3.311-5.968-5.775-8.386c-2.46-2.417-5.318-4.305-8.495-5.606C35.465,7.853,32.069,7.185,28.582,7.185
				L28.582,7.185z M11.434,23.252c0.629,0,1.19-1.107,1.312-1.497c0.146-0.44,1.671-2.115,2.254-3.004
				c0.575-0.889,0.039-2.977-0.841-3.11c-0.182-0.035-0.325-0.135-0.434-0.272c1.659-1.337,3.479-2.439,5.442-3.298
				c2.902-1.257,5.986-1.91,9.171-1.942c0.077-0.001,0.153-0.001,0.229-0.001c3.113,0,6.129,0.592,8.985,1.765
				c0,0-1.706-0.372-2.826-0.372c-0.01,0-0.02,0-0.03,0c-0.039-0.002-0.079-0.004-0.118-0.004c-0.898,0-2.242,0.68-2.701,1.483
				c-0.333,0.591-1.93,2.264-3.101,2.717c-1.173,0.453-1.014,1.066-1.314,1.144c-0.294,0.07-0.45,0.324-0.897,0.841
				c-0.449,0.52,0.208,1.095,0.208,1.095s0.28,0.068,0.635,0.068c0.536,0,1.243-0.156,1.413-0.94
				c0.036-0.159,0.053-0.226,0.061-0.226c0.028,0-0.107,1.008-0.048,1.475c0.043,0.306,0.365,0.491,0.746,0.491
				c0.348,0,0.744-0.154,1.021-0.509c0.261-0.33,0.209-1.168,0.384-1.446c0.083-0.144,0.204-0.183,0.333-0.183
				c0.157,0,0.325,0.057,0.46,0.057c0.021,0,0.041-0.001,0.061-0.004c0.005,0,0.008,0,0.013,0c0.121,0-0.142,0.262,0.039,0.363
				c0.381,0.225,1.139-0.168,0.961,0.725c-0.071,0.363-1.222,0.445-1.363,0.983c-0.141,0.529-0.41,0.823-0.41,0.823l-2.402,0.079
				l-0.799-1.151c0,0-0.788,0.354-0.573,1.039c0.146,0.472-0.2,1.032-0.2,1.032s-1.264,0.229-1.259,0.606
				c0.002,0.199-0.5,0.233-0.781,0.344c-0.231,0.1-0.401,0.488-0.63,0.521c-0.141,0.018-0.984,0.105-1.177,0.139
				c-0.516,0.067-0.267,0.207-0.265,0.421c0.003,0.292,0.958,0.356,0.958,0.356s0.593,0.243,0.373,0.687
				c-0.216,0.439,0.18,0.582-0.261,0.586c-0.006,0-0.014,0.001-0.022,0.001c-0.173,0-0.51-0.017-0.871-0.017
				c-0.062,0-0.122,0-0.184,0.002c-0.01,0-0.019,0-0.028,0c-0.329,0-0.647-0.054-0.859-0.054c-0.151,0-0.249,0.028-0.253,0.125
				c-0.05,0.911,0.001,2.17,0.001,2.17s0.587,0.279,1.013,0.279c0.062,0,0.121-0.007,0.173-0.02
				c0.105-0.027,0.218-0.034,0.336-0.034c0.13,0,0.267,0.009,0.402,0.009c0.407,0,0.807-0.08,1.041-0.726
				c0.035-0.087,0.084-0.268,0.147-0.348c0.269-0.356,0.518-1.055,0.966-1.287c0.104-0.051,0.224-0.066,0.34-0.066
				c0.193,0,0.378,0.042,0.464,0.042c0.003,0,0.005,0,0.008,0c0.288-0.026,0.78-0.425,0.78-0.425s1.322,0.157,1.681,1.447
				c0.107,0.382,0.01,1.033,0.232,1.157c0.007,0.003,0.015,0.006,0.025,0.006c0.17,0,0.703-0.607,0.703-0.607l0.686,0.025
				l-0.386-0.895l-1.276-1.368l0.169-0.105c0,0,1.011,0.015,1.082,0.234c0.078,0.22,1.23,0.745,1.049,1.39
				c-0.31,1.06,0.426,1.345,0.426,1.345s0.056,0.01,0.143,0.01c0.212,0,0.604-0.058,0.807-0.458
				c0.252-0.481,0.286-0.917,0.286-0.917l0.827-0.135c0,0-0.061-1.805,0.874-1.869c0.358-0.018,0.593-0.023,0.746-0.023
				c0.246,0,0.283,0.015,0.283,0.015s2.018,0.666,2.242,1.184c0.226,0.515,0.331,1.038-0.332,1.116
				c-0.16,0.019-0.338,0.026-0.518,0.026c-0.562,0-1.128-0.069-1.128-0.069s-0.676-0.1-1.308-0.1c-0.606,0-1.173,0.091-1.062,0.45
				c0.227,0.731,0.452,1.462,0.452,1.462s0.14-0.013,0.343-0.013c0.213,0,0.497,0.014,0.761,0.073
				c0.227,0.05,0.476,0.064,0.691,0.064c0.302,0,0.535-0.029,0.535-0.029l0.135,1.275l-0.323,0.099
				c-0.37,0.105-1.464,0.172-1.76,0.292c-0.029,0.011-0.087,0.017-0.168,0.017c-0.653,0-2.794-0.329-3.3-0.329
				c-0.062,0-0.099,0.005-0.106,0.016c-0.06,0.094-0.833,0.376-1.425,0.376c-0.106,0-0.207-0.009-0.296-0.029
				c-0.592-0.144-0.752-1.54-0.752-1.54s-0.076-0.621-0.443-0.621c-0.013,0-0.026,0.001-0.04,0.002
				c-0.406,0.031-3.203,0.315-3.203,0.315s-0.915,0.423-0.914,0.641c0,0-0.112-0.078-0.292-0.078c-0.094,0-0.206,0.021-0.33,0.084
				c-0.364,0.188-0.918,0.154-1.06,0.452c-0.147,0.296-0.692,0.85-0.979,1.373c-0.29,0.515-1.134,0.602-1.35,1.52
				c-0.212,0.918-0.378,2.469-0.336,3.131c0.042,0.664,0.057,2.252,0.728,2.615c0.665,0.349,1.554,1.262,1.888,1.59
				c0.266,0.258,1.463,0.461,2.051,0.461c0.151,0,0.262-0.014,0.307-0.043c0.219-0.151,0.955-0.451,1.36-0.454
				c0.021-0.001,0.043-0.001,0.067-0.001c0.426,0,1.232,0.035,1.48,0.246c0.259,0.215,0.555,0.725,0.786,1.277
				c0.227,0.547,0.458,1.468,0.641,1.799c0.185,0.328,0.929,0.939,0.678,1.573c-0.25,0.632-0.726,1.261-0.645,1.993
				c0.083,0.732,0.566,1.722,0.739,2.051c0.165,0.33,1.243,1.348,1.211,1.684c-0.036,0.332,0.259,0.211,0.662,0.36
				c0.049,0.018,0.118,0.026,0.201,0.026c0.603,0,1.963-0.416,2.19-0.677c0.255-0.295,0.612-1.179,1.088-1.665
				c0.471-0.483,1.494-1.301,2.003-1.858c0.513-0.557,1.02-1.043,1.048-1.741c0.031-0.697-0.387-2.277-0.022-2.535
				c0.363-0.26,0.876-0.631,1.239-1.115c0.366-0.481,1.139-0.489,1.671-2.043c0.538-1.551,0.718-1.988,0.611-2.063
				c-0.009-0.007-0.024-0.009-0.042-0.009c-0.208,0-0.93,0.334-1.064,0.531c-0.141,0.221-1.062,0.238-1.244,0.43
				c-0.062,0.061-0.195,0.081-0.343,0.081c-0.281,0-0.614-0.071-0.614-0.071s0.283-1.375,0.094-1.855
				c-0.19-0.471-1.125-2.347-1.427-2.998c-0.25-0.539-0.291-1.18-0.184-1.599c0.048,0.07,0.097,0.137,0.137,0.203
				c0.132,0.231,0.863,1.048,1.17,1.897c0.656,1.839,1.38,3.152,1.38,3.152s0.003,0.001,0.011,0.001c0.11,0,1.045-0.036,2.528-1.204
				c1.076-0.848,2.223-0.913,2.416-1.346c0.36-0.819-1.166-1.538-1.166-1.538l-1.324,0.06l-1.055-1.769l0.302-0.104
				c0,0,1.108,1.305,1.622,1.305c0.001,0,0.002,0,0.003,0c0.204-0.001,0.546-0.028,0.913-0.028c0.558,0,1.174,0.062,1.444,0.368
				c0.446,0.516,1.781,1.381,2.011,2.264c0.228,0.885,0.135,2.139,0.54,2.572c0.428,0.455,0.839,0.512,1.017,0.512
				c0.06,0,0.093-0.006,0.093-0.006l0.643-1.551l1.481-1.829l1.255-0.683c0,0.018,0,0.032,0,0.053
				c0.027,3.188-0.565,6.285-1.763,9.207c-1.168,2.826-2.848,5.365-4.995,7.556c-2.147,2.198-4.658,3.925-7.458,5.136
				c-2.901,1.26-5.983,1.91-9.177,1.941c-0.077,0-0.154,0.002-0.231,0.002c-3.105,0-6.122-0.593-8.978-1.766
				c-2.408-0.99-4.609-2.361-6.566-4.068l1.101-1.604l0.777-3.164l-1.923-1.235l-2.215-0.709l-1.505-3.518
				c0,0-1.634-1.31-2.812-1.74c-0.42-0.152-0.69-0.778-1.136-1.699c-0.221-1.279-0.34-2.568-0.354-3.881
				c-0.007-0.781,0.024-1.549,0.087-2.315c0.095-0.108,0.167-0.2,0.215-0.262c1.168-1.477,4.317-2.912,4.317-2.912
				s1.035-0.153-0.762-3.083c-1.801-2.917,0.76-4.709,0.76-4.709l1.387-1.046c0,0-0.562,3.099,0.18,3.524
				C11.239,23.226,11.336,23.252,11.434,23.252L11.434,23.252z M41.305,28.281c-0.291,0-0.703-0.058-0.688-0.32
				c0.022-0.358-0.188-1.547-0.338-2.011c-0.149-0.463-0.104-1.149,0.115-1.279c0.215-0.124,0.674-0.833,0.674-0.833
				c0.021-0.045,0.068-0.062,0.129-0.062c0.168,0,0.438,0.13,0.511,0.182c0.104,0.07,0.154,0.93,0.06,1.463
				c-0.094,0.544,0.277,0.859,0.426,0.906c0.151,0.049,0.258,1.204,0.236,1.444c-0.021,0.249-0.705,0.476-0.894,0.498
				C41.486,28.275,41.402,28.281,41.305,28.281L41.305,28.281z"/>
		</g>
	</g>
	<path id="SvgjsPath1007" fill="#FFFFFF" d="M159.232,28.307c0,2.491-2.081,4.576-4.572,4.576c-2.486,0-4.57-2.084-4.57-4.576
		c0-2.487,2.084-4.571,4.57-4.571C157.151,23.735,159.232,25.82,159.232,28.307z M132.193,52.069
		c-0.575-1.062-0.302-2.205-0.023-2.909c4.435-0.6,8.016-2.596,10.663-4.659v4.539c-4.225,1.584-9.033,3.029-10.627,3.029H132.193z
		 M172.608,51.18c-2.165-0.624-4.298-1.352-6.407-2.141V44.5c2.648,2.063,6.23,4.06,10.66,4.659c0.275,0.692,0.54,1.8,0.015,2.837
		c0.118-0.221,0.441-0.811-0.038,0.072C175.424,52.069,173.948,51.567,172.608,51.18z M166.333,52.814
		c2.935,1.074,5.977,2.161,9.091,2.587c1.047,0.145,2.387,0.307,3.345-0.277c1.477-0.893,1.976-3.228,1.891-4.797
		c-0.068-1.299-0.479-2.889-1.335-3.911c-0.563-0.677-1.417-0.62-2.214-0.741c-0.849-0.129-1.69-0.326-2.511-0.583
		c-3.384-1.062-6.395-3.146-8.842-5.69c-0.628-0.656-1.231-1.344-1.774-2.076c-0.994-1.344-2.366-2.391-3.883-3.086
		c2.531-2.327,3.324-6.097,1.906-9.232c-1.259-2.801-4.084-3.191-7.15-3.264c-3.078-0.076-5.991,0.186-7.384,2.93
		c-1.598,3.143-0.901,7.054,1.653,9.476c-1.44,0.633-3.01,1.643-3.919,2.955c-0.254,0.365-0.531,0.712-0.812,1.055
		c-1.417,1.705-3.074,3.223-4.914,4.466c-1.235,0.837-2.555,1.55-3.947,2.089c-0.725,0.277-1.465,0.511-2.222,0.691
		c-0.865,0.205-1.746,0.242-2.616,0.419c-1.355,0.273-1.931,2.214-2.177,3.384c-0.354,1.699-0.097,3.477,0.857,4.938
		c0.664,1.014,1.474,1.364,2.692,1.372c1.287,0.008,2.575-0.262,3.823-0.56c2.31-0.56,4.574-1.329,6.809-2.145v5.565h3.617V43.973
		c0-3.992,3.244-7.24,7.235-7.24h1.924c3.992,0,7.239,3.248,7.239,7.24v14.406h3.617V52.814z"/>
	<path id="SvgjsPath1008" fill="#FFFFFF" d="M174.31,24.79l-2.829,2.427l1.039-2.938c0.329-0.922-0.178-1.562-0.785-2.178
		c-0.66-0.664-1.212-1.432-1.626-2.273c-0.765-1.569-1.022-3.372-0.748-5.094c0.49-3.083,2.703-5.723,5.649-6.749
		c3.01-1.046,6.438-0.294,8.736,1.911c2.298,2.206,3.199,5.59,2.286,8.644c-1.075,3.585-4.472,6.117-8.209,6.117
		C176.696,24.657,175.276,23.96,174.31,24.79z M167.175,10.431c-2.354,4.423-1.654,9.988,1.694,13.71l-2.857,8.069
		c-0.58,1.638,1.453,3.042,2.776,1.903l7.147-6.125c6.604,1.066,12.982-3.722,13.839-10.35c0.833-6.435-3.787-12.551-10.209-13.489
		c-0.576-0.084-1.16-0.125-1.742-0.125C173.404,4.025,169.251,6.532,167.175,10.431z"/>
	<path id="SvgjsPath1009" fill="#FFFFFF" d="M156.467,15.784c0.101,0.032,0.197,0.068,0.293,0.104
		c0.049,0.016,0.097,0.037,0.146,0.052c0.023,0.012,0.048,0.02,0.072,0.032c0.076,0.028-0.105-0.048,0.012,0.004
		c0.198,0.084,0.387,0.181,0.576,0.286c0.185,0.101,0.365,0.218,0.543,0.338c0.08,0.057,0.165,0.117,0.245,0.177
		c-0.12-0.092,0.021,0.02,0.049,0.041c0.048,0.036,0.092,0.076,0.137,0.117c0.321,0.273,0.615,0.579,0.881,0.914
		c0.021,0.024,0.076,0.097-0.008-0.012c0.017,0.02,0.032,0.04,0.044,0.06c0.032,0.041,0.062,0.084,0.093,0.125
		c0.064,0.088,0.125,0.181,0.185,0.274c0.117,0.181,0.223,0.366,0.318,0.559c0.053,0.105,0.105,0.213,0.153,0.326
		c0.012,0.024,0.021,0.044,0.032,0.069c-0.061-0.133-0.009-0.016,0.004,0.012c0.021,0.057,0.044,0.113,0.064,0.169
		c0.089,0.238,0.16,1.473,0.221,1.719c0.028,0.121,0.053,0.241,0.076,0.362c0.008,0.061,0.021,0.121,0.029,0.181
		c0.003,0.028,0.008,0.052,0.012,0.081c-0.021-0.153-0.004-0.02,0.004,0.012c0.028,0.261,0.044,0.523,0.044,0.785
		c0,0.246,0.205,0.455,0.455,0.455c0.245,0,0.455-0.209,0.455-0.455c-0.004-1.843-0.744-4.628-2.045-5.932
		c-0.792-0.796-1.782-1.388-2.849-1.726c-0.237-0.077-0.495,0.084-0.56,0.317C156.081,15.474,156.23,15.711,156.467,15.784"/>
	<path id="SvgjsPath1010" fill="#FFFFFF" d="M160.995,24.331c0.402,0,0.784-0.161,1.069-0.446c0.286-0.286,0.443-0.668,0.443-1.066
		c-0.008-2.117-0.865-5.179-2.354-6.676c-0.901-0.905-2.036-1.593-3.275-1.988c-0.145-0.044-0.294-0.068-0.443-0.068
		c-0.676,0-1.274,0.459-1.456,1.11c-0.213,0.789,0.233,1.598,1.018,1.848c0.085,0.028,0.169,0.056,0.25,0.084
		c0.041,0.016,0.081,0.032,0.125,0.048l0.048,0.021c0.157,0.068,0.318,0.148,0.483,0.237c0.148,0.084,0.302,0.177,0.455,0.286
		c0.056,0.036,0.108,0.077,0.164,0.121c0.009,0.004,0.017,0.012,0.024,0.021l0.045,0.032c0.036,0.032,0.076,0.065,0.112,0.097
		c0.266,0.222,0.511,0.479,0.748,0.777l0.012,0.016c0.024,0.032,0.049,0.068,0.077,0.104c0.052,0.077,0.104,0.153,0.152,0.229
		c0.093,0.145,0.182,0.302,0.27,0.471c0.045,0.084,0.085,0.173,0.13,0.27l0.02,0.052c0.016,0.044,0.037,0.093,0.052,0.141
		c0.073,0.189,0.133,1.388,0.187,1.597c0.023,0.101,0.044,0.206,0.063,0.302c0.008,0.052,0.017,0.104,0.028,0.169l0.008,0.044
		c0.024,0.209,0.037,0.43,0.037,0.66C159.489,23.655,160.165,24.331,160.995,24.331z"/>
	<path id="SvgjsPath1011" fill="#FFFFFF" d="M148.591,22.568c0-0.225,0.013-0.451,0.032-0.676c0.008-0.057,0.013-0.109,0.021-0.161
		c0.012-0.101-0.016,0.112,0,0.016c0-0.028,0.004-0.056,0.012-0.08c0.017-0.113,0.036-0.226,0.061-0.338
		c0.044-0.218,0.101-1.421,0.17-1.63c0.031-0.097,0.063-0.197,0.1-0.294c0.021-0.048,0.04-0.097,0.057-0.145
		c0.013-0.024,0.02-0.048,0.032-0.072c-0.057,0.137-0.008,0.02,0.005-0.008c0.169-0.394,0.382-0.768,0.627-1.119
		c0.027-0.04,0.061-0.081,0.088-0.125c0.021-0.028,0.13-0.169,0.037-0.048c0.068-0.089,0.14-0.173,0.208-0.258
		c0.142-0.161,0.287-0.314,0.439-0.458c0.088-0.084,0.178-0.161,0.266-0.241c0.045-0.037,0.093-0.077,0.138-0.113
		c0.02-0.016,0.039-0.032,0.06-0.049c0.097-0.076-0.057,0.041,0.008-0.008c0.197-0.149,0.403-0.285,0.616-0.41
		c0.205-0.125,0.418-0.234,0.636-0.334c0.023-0.012,0.048-0.02,0.072-0.032c0.028-0.012,0.145-0.06,0.008-0.004
		c0.057-0.024,0.112-0.044,0.169-0.068c0.121-0.044,0.245-0.089,0.37-0.129c0.234-0.073,0.383-0.31,0.313-0.556
		c-0.06-0.233-0.321-0.395-0.555-0.317c-1.727,0.547-3.198,1.754-4.061,3.348c-0.547,1.014-0.833,3.155-0.837,4.31
		c0,0.25,0.205,0.455,0.454,0.455C148.382,23.023,148.591,22.818,148.591,22.568"/>
	<path id="SvgjsPath1012" fill="#FFFFFF" d="M147.984,24.331c0.833,0,1.51-0.676,1.51-1.509c0-0.193,0.012-0.386,0.031-0.571
		c0.005-0.037,0.008-0.072,0.013-0.109l0.008-0.064c0.017-0.093,0.032-0.189,0.053-0.282c0.035-0.169,0.084-1.34,0.14-1.525
		c0.029-0.081,0.057-0.165,0.086-0.246c0.015-0.04,0.032-0.076,0.052-0.125l0.017-0.048c0.141-0.318,0.316-0.632,0.53-0.934
		c0.024-0.037,0.049-0.072,0.073-0.105l0.056-0.072c0.045-0.056,0.093-0.113,0.141-0.169c0.109-0.129,0.234-0.258,0.367-0.386
		c0.071-0.068,0.145-0.137,0.225-0.201c0.037-0.032,0.072-0.064,0.109-0.093l0.056-0.044c0.153-0.117,0.322-0.234,0.507-0.342
		c0.161-0.097,0.343-0.19,0.531-0.278l0.085-0.037c0.036-0.012,0.072-0.028,0.108-0.04c0.101-0.04,0.205-0.077,0.306-0.108
		c0.79-0.25,1.231-1.062,1.019-1.848c-0.182-0.651-0.78-1.11-1.457-1.11c-0.148,0-0.298,0.024-0.438,0.068
		c-1.983,0.628-3.687,2.032-4.672,3.851c-0.624,1.163-0.958,3.477-0.962,4.813c0,0.402,0.157,0.781,0.442,1.066
		C147.204,24.174,147.582,24.331,147.984,24.331z"/>
	<path id="SvgjsPath1013" fill="#FFFFFF" d="M153.026,17.892v-2.688v-0.101c0-0.04,0.017-0.192-0.004-0.036
		c0.009-0.049,0.021-0.097,0.033-0.145c0.012-0.028,0.048-0.112-0.009,0.017c0.009-0.024,0.021-0.045,0.032-0.065
		c0.012-0.024,0.024-0.044,0.036-0.064c0.064-0.101-0.048,0.052,0.004-0.004c0.028-0.041,0.064-0.072,0.101-0.104
		c0.024-0.024,0.097-0.072-0.016,0.008c0.021-0.012,0.04-0.028,0.061-0.04c0.031-0.021,0.188-0.089,0.044-0.028
		c0.057-0.024,0.112-0.037,0.169-0.049c0.093-0.02-0.117,0.012-0.021,0.004c0.028-0.004,0.053-0.004,0.077-0.004h0.008h0.068h1.577
		h0.281h0.062h0.007c0.025,0,0.053,0,0.077,0.004c0.085,0.004-0.116-0.024,0.009,0c0.047,0.012,0.097,0.024,0.14,0.045
		c-0.14-0.053,0.013,0.007,0.044,0.028c0.025,0.011,0.045,0.028,0.064,0.04c-0.112-0.076-0.044-0.032-0.015-0.008
		c0.039,0.036,0.08,0.076,0.116,0.121c-0.097-0.117,0.004,0.017,0.021,0.052c0.012,0.02,0.024,0.044,0.036,0.065
		c-0.061-0.125-0.024-0.049-0.012-0.017c0.015,0.048,0.027,0.096,0.035,0.145c-0.027-0.153-0.004-0.004-0.004,0.036v1.192v1.597
		c0,0.25,0.205,0.455,0.454,0.455c0.246,0,0.455-0.205,0.455-0.455v-2.688c0-0.302-0.052-0.591-0.217-0.853
		c-0.262-0.415-0.724-0.668-1.216-0.668h-1.452h-0.531c-0.508,0-0.979,0.273-1.235,0.708c-0.258,0.435-0.189,0.994-0.189,1.477
		v2.024c0,0.25,0.205,0.455,0.455,0.455C152.817,18.347,153.026,18.142,153.026,17.892"/>
	<path id="SvgjsPath1014" fill="#FFFFFF" d="M153.36,15.458l0.033,0.435c0.044-0.004,0.088-0.008,0.132-0.02L153.36,15.458z
		 M155.267,15.9c0.101,0.04,0.233,0.072,0.391,0.072v-0.068h-0.104v0.021h-0.161L155.267,15.9z M153.112,15.904v0.068
		c0.152,0,0.284-0.032,0.385-0.072h-0.104c-0.057,0.004-0.093,0.004-0.109,0.004H153.112z M153.348,15.594v0.298
		c0.017,0,0.028,0,0.04,0L153.348,15.594z M154.841,18.146V15.9h-0.914v2.245c0,0.833-0.676,1.509-1.509,1.509
		s-1.509-0.676-1.509-1.509v-2.024c0-0.077,0-0.149-0.005-0.229c-0.011-0.491-0.027-1.167,0.343-1.787
		c0.446-0.756,1.268-1.227,2.141-1.227h1.988c0.85,0,1.658,0.446,2.108,1.163c0.254,0.407,0.375,0.865,0.375,1.413v2.692
		c0,0.833-0.677,1.509-1.51,1.509C155.518,19.655,154.841,18.979,154.841,18.146z"/>
	<path id="SvgjsPath1015" fill="#FFFFFF" d="M146.527,23.043h1.022h2.6h3.481h3.658h3.139h1.911h0.281
		c0.25,0,0.455-0.209,0.455-0.455c0-0.25-0.205-0.455-0.455-0.455h-1.021h-2.6h-3.48h-3.658h-3.136h-1.915h-0.282
		c-0.249,0-0.454,0.205-0.454,0.455C146.073,22.834,146.278,23.043,146.527,23.043"/>
	<path id="SvgjsPath1016" fill="#FFFFFF" d="M162.467,24.351h-16.093c-0.833,0-1.509-0.68-1.509-1.513
		c0-0.833,0.676-1.509,1.509-1.509h16.093c0.833,0,1.513,0.676,1.513,1.509C163.98,23.671,163.3,24.351,162.467,24.351"/>
	
		<path id="SvgjsPath1017" fill="#FFFFFF" fill-opacity="0" stroke="#FFFFFF" stroke-width="3.2193" stroke-linecap="round" stroke-miterlimit="50" stroke-dasharray="0" d="
		M174.817,12.766l6.26,6.26"/>
	
		<path id="SvgjsPath1018" fill="#FFFFFF" fill-opacity="0" stroke="#FFFFFF" stroke-width="3.2193" stroke-linecap="round" stroke-miterlimit="50" stroke-dasharray="0" d="
		M180.792,13.051l-6.26,6.26"/>
	<circle fill="#FFFFFF" stroke="#FFFFFF" stroke-width="0.6525" stroke-miterlimit="10" cx="83.155" cy="32.22" r="2.302"/>
	<circle fill="#FFFFFF" stroke="#FFFFFF" stroke-width="0.6525" stroke-miterlimit="10" cx="94.156" cy="32.22" r="2.302"/>
	<circle fill="#FFFFFF" stroke="#FFFFFF" stroke-width="0.6525" stroke-miterlimit="10" cx="105.157" cy="32.22" r="2.302"/>
</g>
</svg>
